HIERARCHY
ROOT Hips
{
    OFFSET 0.000000 0.000000 0.000000
    CHANNELS 6 Xposition Yposition Zposition Zrotation Xrotation Yrotation
        JOINT Spine1
        {
            OFFSET -0.000000 23.269398 0.000000
            CHANNELS 3 Zrotation Xrotation Yrotation
            JOINT Neck
            {
                OFFSET -0.000000 18.032967 0.000000
                CHANNELS 3 Zrotation Xrotation Yrotation
                JOINT Head
                {
                    OFFSET -0.000000 13.091072 1.689171
                    CHANNELS 3 Zrotation Xrotation Yrotation
                    End Site
                    {
                        OFFSET -0.000000 16.891708 0.000000
                    }
                }
            }
            JOINT LeftShoulder
            {
                OFFSET 3.336773 14.146137 -0.012206
                CHANNELS 3 Zrotation Xrotation Yrotation
                JOINT LeftArm
                {
                    OFFSET 11.765518 0.000000 0.000000
                    CHANNELS 3 Zrotation Xrotation Yrotation
                    JOINT LeftForeArm
                    {
                        OFFSET 25.163450 0.000000 0.000000
                        CHANNELS 3 Zrotation Xrotation Yrotation
                        JOINT LeftHand
                        {
                            OFFSET 21.783554 0.000000 0.000000
                            CHANNELS 3 Zrotation Xrotation Yrotation
                            End Site
                            {
                                OFFSET 12.668781 0.000000 0.000000
                            }
                        }
                    }
                }
            }
            JOINT RightShoulder
            {
                OFFSET -3.409204 14.146137 -0.012206
                CHANNELS 3 Zrotation Xrotation Yrotation
                JOINT RightArm
                {
                    OFFSET -11.765518 0.000000 0.000000
                    CHANNELS 3 Zrotation Xrotation Yrotation
                    JOINT RightForeArm
                    {
                        OFFSET -25.163450 0.000000 0.000000
                        CHANNELS 3 Zrotation Xrotation Yrotation
                        JOINT RightHand
                        {
                            OFFSET -21.783554 0.000000 0.000000
                            CHANNELS 3 Zrotation Xrotation Yrotation
                            End Site
                            {
                                OFFSET -12.668781 0.000000 0.000000
                            }
                        }
                    }
                }
            }
        }
        JOINT LeftUpLeg
    {
        OFFSET 8.445854 0.000000 0.000000
        CHANNELS 3 Zrotation Xrotation Yrotation
        JOINT LeftLeg
        {
            OFFSET -0.000000 -40.674755 0.000000
            CHANNELS 3 Zrotation Xrotation Yrotation
            JOINT LeftFoot
            {
                OFFSET -0.000000 -37.111794 0.000000
                CHANNELS 3 Zrotation Xrotation Yrotation
                JOINT LeftToeBase
                {
                    OFFSET -0.000000 -5.489805 12.668781
                    CHANNELS 3 Zrotation Xrotation Yrotation
                    End Site
                    {
                        OFFSET -0.000000 0.000000 3.378341
                    }
                }
            }
        }
    }
    JOINT RightUpLeg
    {
        OFFSET -8.445854 0.000000 0.000000
        CHANNELS 3 Zrotation Xrotation Yrotation
        JOINT RightLeg
        {
            OFFSET -0.000000 -40.674755 0.000000
            CHANNELS 3 Zrotation Xrotation Yrotation
            JOINT RightFoot
            {
                OFFSET -0.000000 -37.111794 0.000000
                CHANNELS 3 Zrotation Xrotation Yrotation
                JOINT RightToeBase
                {
                    OFFSET -0.000000 -5.489805 12.668781
                    CHANNELS 3 Zrotation Xrotation Yrotation
                    End Site
                    {
                        OFFSET -0.000000 0.000000 3.378341
                    }
                }
            }
        }
    }
}
MOTION
Frames:    6
Frame Time:    0.008333
-7.349637    82.877457    11.106153    -3.028089    -5.247115    -9.630116    5.602793    12.454985    -2.985142    0.094687    0.571554    1.689108    -7.328409    -4.434235    2.424437    -0.663980    8.197107    6.978282    -49.491478    41.104202    -34.177868    4.064322    0.565122    -24.840899    -3.543828    1.632802    -5.567686    -2.259756    8.266693    0.204190    36.560806    43.785976    40.309971    -0.227668    -2.103223    29.379454    -7.425584    -2.289466    3.790441    11.969183    -5.082284    7.008519    -0.629643    27.027662    8.179330    -7.777040    -10.106747    16.339193    -4.726230    -4.472611    4.224670    5.011259    5.593180    7.119930    -2.775876    0.741020    -0.570391    1.122546    -4.645165    1.827830    -3.134946    5.483863    -0.083459    
-7.426906    82.885277    11.096003    -3.085846    -5.321731    -9.490160    5.605138    12.534443    -3.158104    0.057677    0.565104    1.727112    -7.166821    -4.415665    2.444995    -0.652711    8.129889    6.933672    -50.343830    40.123520    -33.932568    4.011033    1.220823    -24.587864    -3.269642    2.262909    -5.885620    -2.272570    8.244183    0.222495    35.840820    43.686245    40.834324    0.477168    -1.939824    30.056051    -7.992275    -2.328841    3.737169    12.073768    -5.062736    6.826650    -0.672476    27.058964    8.182891    -7.805958    -10.058281    16.342625    -4.745224    -4.498954    4.223520    5.149874    5.726082    6.885682    -2.836203    0.645702    -0.504111    1.117801    -4.603560    1.835898    -3.120965    5.465667    -0.093236    
-7.454084    82.886734    11.089381    -3.100731    -5.310694    -9.565219    5.583468    12.520419    -3.143713    0.041782    0.563641    1.728366    -7.038544    -4.414351    2.432484    -0.641292    8.113673    6.910325    -50.013401    40.239368    -34.308113    4.061175    1.283257    -24.474277    -2.635055    2.312923    -6.470260    -2.277788    8.266219    0.225049    35.508602    43.813347    41.146221    0.415411    -2.005051    30.633989    -8.050611    -2.390329    3.859967    12.093744    -5.048007    6.848655    -0.650759    27.049686    8.244815    -7.823032    -10.061863    16.328970    -4.725345    -4.474858    4.215881    5.170980    5.732445    6.899060    -2.825700    0.604039    -0.452429    1.104059    -4.552572    1.824406    -3.119553    5.454319    -0.079681    
-7.479008    82.888023    11.081656    -3.106842    -5.288188    -9.630636    5.464567    12.455358    -3.174593    0.040156    0.580042    1.775399    -6.868784    -4.398848    2.466250    -0.567833    8.088419    6.939132    -50.090984    40.148453    -34.273880    4.357816    1.449699    -24.782230    -2.227186    2.532064    -6.432205    -2.263319    8.327273    0.231120    35.227776    44.011803    41.558292    0.277779    -2.129535    31.127344    -7.978207    -2.489992    4.061336    12.112370    -5.053233    6.909271    -0.621202    27.046652    8.209350    -7.848456    -10.060896    16.359499    -4.715795    -4.460605    4.219025    5.181344    5.723733    6.915583    -2.810125    0.561992    -0.432618    1.098716    -4.535240    1.862622    -3.133116    5.473451    -0.072466    
-7.494826    82.881348    11.070131    -3.067297    -5.263560    -9.697481    5.402483    12.353506    -3.129260    0.007345    0.612000    1.779106    -6.754724    -4.389581    2.455681    -0.560423    8.127772    6.983253    -49.940773    40.213993    -34.548618    4.413873    1.477033    -24.700495    -1.633635    2.543173    -6.996917    -2.292658    8.381280    0.161396    37.297153    43.139229    40.857826    -0.457534    -1.437584    30.522305    -7.320284    -1.623902    4.861021    12.067579    -5.066429    6.908064    -0.597126    27.036860    8.265049    -7.874559    -10.058308    16.371635    -4.700602    -4.444443    4.207455    5.137957    5.682115    6.947494    -2.782906    0.566129    -0.392562    1.080751    -4.525945    1.866088    -3.134123    5.471003    -0.066020    
-7.474575    82.884758    11.082630    -3.077069    -5.185348    -9.911633    5.377907    12.269697    -3.019525    -0.017360    0.608275    1.792897    -6.642389    -4.395589    2.455862    -0.553283    8.103744    6.957958    -49.832840    40.229168    -34.729614    4.638927    1.570088    -24.795666    -1.090380    2.657248    -7.095193    -2.281689    8.393901    0.143646    37.162117    43.230431    41.079617    -0.566655    -1.436998    30.974188    -7.214244    -1.601347    5.095034    12.040208    -4.958735    5.814053    -1.174432    26.792902    9.726250    -7.874166    -9.980020    16.378525    -4.692069    -4.431631    4.210464    5.077540    5.616647    7.131718    -2.698600    0.537519    -0.367455    1.078675    -4.484689    1.887532    -3.126061    5.462246    -0.074309    
